. 
  
http://www.torrentday.com/        :     The Hottest Private Tracker On The Net!!!
 
http://www.torrentday.com          :     Once & For all ;)


               www . TorrentDay . Com 

(((((((((((((= Enjoy No RAR releases =))))))))))))))))))))


...................................NFO:....................................

.[img]http://img62.imageshack.us/img62/1393/posterek.jpg[/img]

[color=red][size=4][b]Monsters.2010.DVDRiP.XViD.AC3.NiTR0[/b][/size][/color]

Runtime: 97 min
Source: R1 NTSC DVD9
Genre: Drama, Romance
IMDB: http://www.imdb.com/title/tt1470827/
Audio: English
Subtitles: NONE

[color=red][size=3][b]General[/b][/size][/color]
Format                           : AVI
Format/Info                      : Audio Video Interleave
Format profile                   : OpenDML
Format settings                  : rec
File size                        : 1.38 GiB
Duration                         : 1h 33mn
Overall bit rate                 : 2 100 Kbps

[color=red][size=3][b]Video[/b][/size][/color]
Format                           : MPEG-4 Visual
Format profile                   : Advanced Simple@L5
Format settings, BVOP            : 2
Format settings, QPel            : No
Format settings, GMC             : No warppoints
Format settings, Matrix          : Default (H.263)
Muxing mode                      : Packed bitstream
Codec ID                         : XVID
Duration                         : 1h 33mn
Bit rate                         : 1 646 Kbps
Width                            : 720 pixels
Height                           : 304 pixels
Display aspect ratio             : 2.35:1
Frame rate                       : 23.976 fps
Scan type                        : Progressive
Stream size                      : 1.08 GiB (78%)

[color=red][size=3][b]Audio[/b][/size][/color]
Format                           : AC-3
Format/Info                      : Audio Coding 3
Mode extension                   : CM (complete main)
Duration                         : 1h 33mn
Bit rate mode                    : Constant
Bit rate                         : 448 Kbps
Channel(s)                       : 6 channels
Channel positions                : Front: L C R, Side: L R, LFE
Sampling rate                    : 48.0 KHz
Bit depth                        : 16 bits
Stream size                      : 301 MiB (21%)
Alignment                        : Aligned on interleaves
Interleave, duration             : 64 ms (1.53 video frames)
Interleave, preload duration     : 192 ms

[color=red][size=3][b]Plot:[/b][/size][/color]
Six years ago NASA discovered the possibility of alien life within our solar system. A probe was launched
to collect samples, but crashed upon re-entry over Central America. Soon after, new life form began to appear
and half of Mexico was quarantined as an INFECTED ZONE. Today, the American and Mexican military still struggle
to contain "the creatures"...... Our story begins when a US journalist agrees to escort a shaken tourist through
the infected zone in Mexico to the safety of the US border.

[color=red][size=3][b]Group Notes:[/b][/size][/color]
special thanks goes out to HiTM4N

[color=red][size=3][b]Screens[/b][/size][/color]
[img]http://img62.imageshack.us/img62/8397/98066893.png[/img]
[img]http://img62.imageshack.us/img62/5945/48238397.png[/img]